<?xml version="1.0" encoding="UTF-8"?>
<!-- Generator: Adobe Illustrator 27.2.0, SVG Export Plug-In . SVG Version: 6.00 Build 0)  -->
<svg xmlns="http://www.w3.org/2000/svg" xmlns:xlink="http://www.w3.org/1999/xlink" version="1.1" id="Camada_1" x="0px" y="0px" viewBox="0 0 355 140" style="enable-background:new 0 0 355 140;" xml:space="preserve">
<style type="text/css">
	.st0{fill-rule:evenodd;clip-rule:evenodd;fill:#FFFFFF;}
</style>
<g>
	<path class="st0" d="M271.5,102.7v1.3c0,5.7-1.3,9.8-3.8,12.4c-2.5,2.5-6.6,3.8-12.3,3.8h-4c-6.2,0-10.5-1.3-13-4   c-2.5-2.6-3.7-7.3-3.7-14v-9.1c0-6.7,1.2-11.3,3.7-13.9c2.5-2.6,6.8-4,13-4h3.2c6.1,0,10.4,1.2,12.9,3.5c2.4,2.3,3.6,6.4,3.6,12.2   v0.9h-11.7V91c0-2-0.5-3.4-1.4-4.2c-0.9-0.8-2.5-1.2-4.8-1.2c-2.5,0-4.2,0.5-5.1,1.5c-0.8,1-1.3,3.3-1.3,7.1v7.2   c0,3.7,0.4,6.1,1.3,7.1c0.8,1,2.5,1.5,5.1,1.5c2.4,0,4-0.4,4.9-1.3c0.9-0.9,1.4-2.5,1.4-4.8v-1H271.5z M329.6,119.6v-34h-11.3v-9.8   h34.3v9.8h-11.2v34H329.6z M206,103h9.6l-4.3-18.1h-0.8L206,103z M189.3,119.6l12.6-43.8h18.1l12.3,43.8h-12.6l-2-7.7h-13.8l-2,7.7   H189.3z M163.2,96.9h6.6c2,0,3.3-0.3,4-1c0.7-0.7,1.1-1.9,1.1-3.8v-1.7c0-1.9-0.4-3.1-1.1-3.8c-0.7-0.7-2-1-4-1h-6.6V96.9z    M151.5,119.6V75.8h17.7c6.7,0,11.4,0.9,13.9,2.7c2.5,1.8,3.8,4.9,3.8,9.3v3.5c0,3-0.7,5.3-2.1,7c-1.4,1.7-3.5,2.7-6.3,3   c3,0.5,5.1,1.5,6.5,2.9c1.4,1.5,2,3.6,2,6.3v9h-12v-7.9c0-1.9-0.4-3.2-1.1-3.8c-0.7-0.7-2-1-4-1h-6.5v12.8H151.5z M116.7,119.6   V75.8h29.5v9.8h-17.7V94h16.7v9.6h-16.7v15.9H116.7z M276.5,119.6V75.8h11.8v16.4h15.3V75.8h11.8v43.8h-11.8v-17.1h-15.3v17.1   H276.5z"></path>
	<path class="st0" d="M253.2,30.2c0-6.6,1.2-11.3,3.7-13.9c2.5-2.6,6.8-4,13-4h5.8c6.2,0,10.6,1.3,13.1,4c0.9,1,1.7,2.3,2.3,3.8   l-11,36.9c-1.3,0.2-2.8,0.3-4.4,0.3h-5.8c-6.2,0-10.5-1.3-13-4c-2.5-2.6-3.7-7.3-3.7-13.9V30.2z M265.2,31.2v7.2   c0,3.7,0.4,6.1,1.3,7.1c0.8,1,2.6,1.4,5.3,1.4h2.2c2.7,0,4.5-0.5,5.3-1.5c0.9-1,1.3-3.3,1.3-7v-7.2c0-3.7-0.4-6.1-1.3-7.1   c-0.9-1-2.6-1.5-5.3-1.5h-2.2c-2.7,0-4.4,0.5-5.3,1.5C265.6,25.1,265.2,27.4,265.2,31.2z M205.7,56.6V12.8h17.5l13.6,32.5V12.8H248   v43.8h-17.5l-13.6-32.8v32.8H205.7z M163.2,12.8h11.7v25.5c0,3.6,0.4,5.9,1.3,6.9c0.9,1.1,2.7,1.6,5.5,1.6h2.1   c2.7,0,4.6-0.5,5.4-1.6c0.9-1,1.3-3.4,1.3-6.9V12.8h11.7v26.5c0,3.9-0.2,6.8-0.7,8.7c-0.5,1.8-1.3,3.4-2.5,4.8   c-1.4,1.6-3.1,2.7-5.1,3.4c-2.1,0.7-4.8,1-8.3,1h-5.8c-3.5,0-6.3-0.3-8.3-1c-2.1-0.7-3.8-1.8-5.1-3.4c-1.2-1.4-2-3-2.5-4.9   c-0.5-1.9-0.8-4.7-0.8-8.6V12.8z M116.7,56.6V12.8h17.5l13.6,32.5V12.8H159v43.8h-17.5l-13.6-32.8v32.8H116.7z"></path>
	<polygon class="st0" points="299.7,71.4 281.7,71.4 302.3,2.4 320.3,2.4  "></polygon>
	<polygon class="st0" points="320.9,71.4 302.8,71.4 323.4,2.4 341.5,2.4  "></polygon>
	<path class="st0" d="M333.8,132.5c0,0.4,0.1,0.8,0.2,1.1c0.1,0.4,0.3,0.7,0.5,1c0.2,0.3,0.5,0.5,0.8,0.7c0.3,0.2,0.7,0.3,1.1,0.3   c0.4,0,0.8-0.1,1.2-0.3c0.3-0.2,0.6-0.4,0.8-0.7c0.2-0.3,0.4-0.6,0.5-1c0.1-0.4,0.2-0.7,0.2-1.1c0-0.4-0.1-0.8-0.2-1.1   c-0.1-0.4-0.3-0.7-0.5-1c-0.2-0.3-0.5-0.5-0.8-0.7c-0.3-0.2-0.7-0.2-1.1-0.2c-0.4,0-0.8,0.1-1.1,0.3c-0.3,0.2-0.6,0.4-0.8,0.7   c-0.2,0.3-0.4,0.6-0.5,1C333.9,131.8,333.8,132.2,333.8,132.5z M336.4,137.6c-0.7,0-1.4-0.1-2-0.4c-0.6-0.3-1.1-0.7-1.6-1.1   c-0.4-0.5-0.8-1-1-1.6c-0.2-0.6-0.4-1.2-0.4-1.9c0-0.7,0.1-1.3,0.4-1.9c0.2-0.6,0.6-1.1,1-1.6c0.4-0.5,1-0.8,1.6-1.1   c0.6-0.3,1.3-0.4,2-0.4c0.7,0,1.4,0.1,2,0.4c0.6,0.3,1.1,0.7,1.6,1.2c0.4,0.5,0.8,1,1,1.6c0.2,0.6,0.4,1.2,0.4,1.9   c0,0.7-0.1,1.3-0.4,1.9c-0.2,0.6-0.6,1.1-1,1.6c-0.4,0.5-1,0.8-1.6,1.1C337.8,137.5,337.1,137.6,336.4,137.6z M319,132.4   c0-0.6,0.1-1.2,0.3-1.8c0.2-0.6,0.6-1.1,1-1.6c0.4-0.5,1-0.9,1.6-1.1c0.6-0.3,1.3-0.4,2.1-0.4c0.9,0,1.8,0.2,2.4,0.6   c0.7,0.4,1.2,0.9,1.5,1.6l-1.8,1.2c-0.1-0.3-0.3-0.5-0.4-0.7c-0.2-0.2-0.4-0.3-0.6-0.4c-0.2-0.1-0.4-0.2-0.6-0.2   c-0.2,0-0.4-0.1-0.6-0.1c-0.4,0-0.8,0.1-1.2,0.3c-0.3,0.2-0.6,0.4-0.8,0.7c-0.2,0.3-0.4,0.6-0.5,1c-0.1,0.4-0.2,0.7-0.2,1.1   c0,0.4,0.1,0.8,0.2,1.1c0.1,0.4,0.3,0.7,0.5,1c0.2,0.3,0.5,0.5,0.8,0.7c0.3,0.2,0.7,0.2,1.1,0.2c0.2,0,0.4,0,0.6-0.1   c0.2-0.1,0.4-0.1,0.6-0.2c0.2-0.1,0.4-0.2,0.6-0.4c0.2-0.2,0.3-0.4,0.4-0.6l1.9,1.1c-0.1,0.4-0.4,0.7-0.7,1c-0.3,0.3-0.6,0.5-1,0.7   c-0.4,0.2-0.8,0.3-1.2,0.5c-0.4,0.1-0.9,0.2-1.3,0.2c-0.7,0-1.4-0.1-2-0.4c-0.6-0.3-1.1-0.7-1.6-1.2c-0.4-0.5-0.8-1-1-1.7   C319.2,133.7,319,133.1,319,132.4z M312.6,137.5v-10h2.3v10H312.6z M308.7,129.6h-3v8h-2.3v-8h-3.1v-2h8.4V129.6z M295.7,130.5   c0,0-0.1-0.1-0.3-0.2c-0.2-0.1-0.4-0.2-0.6-0.3c-0.3-0.1-0.5-0.2-0.8-0.3c-0.3-0.1-0.6-0.1-0.9-0.1c-0.8,0-1.2,0.3-1.2,0.8   c0,0.2,0,0.3,0.1,0.4c0.1,0.1,0.2,0.2,0.4,0.3c0.2,0.1,0.4,0.2,0.7,0.2c0.3,0.1,0.6,0.2,0.9,0.3c0.5,0.1,0.9,0.3,1.3,0.4   c0.4,0.2,0.7,0.3,1,0.6c0.3,0.2,0.5,0.5,0.6,0.8c0.1,0.3,0.2,0.7,0.2,1.2c0,0.6-0.1,1-0.3,1.4c-0.2,0.4-0.5,0.7-0.8,0.9   c-0.4,0.2-0.8,0.4-1.2,0.5c-0.5,0.1-0.9,0.2-1.4,0.2c-0.4,0-0.7,0-1.1-0.1c-0.4-0.1-0.8-0.1-1.1-0.2c-0.4-0.1-0.7-0.2-1.1-0.4   c-0.3-0.2-0.7-0.3-1-0.5l1-2c0,0,0.2,0.1,0.4,0.3c0.2,0.1,0.5,0.3,0.8,0.4c0.3,0.1,0.6,0.2,1,0.4c0.4,0.1,0.8,0.2,1.1,0.2   c0.8,0,1.2-0.2,1.2-0.7c0-0.2-0.1-0.3-0.2-0.5c-0.1-0.1-0.3-0.2-0.5-0.3c-0.2-0.1-0.5-0.2-0.8-0.3c-0.3-0.1-0.6-0.2-1-0.3   c-0.5-0.1-0.9-0.3-1.2-0.5c-0.3-0.2-0.6-0.4-0.8-0.6c-0.2-0.2-0.4-0.5-0.5-0.7c-0.1-0.3-0.2-0.6-0.2-1c0-0.5,0.1-1,0.3-1.4   c0.2-0.4,0.5-0.7,0.8-1c0.3-0.3,0.7-0.5,1.2-0.6c0.4-0.1,0.9-0.2,1.4-0.2c0.3,0,0.7,0,1,0.1c0.3,0.1,0.7,0.1,1,0.3   c0.3,0.1,0.6,0.2,0.9,0.4c0.3,0.1,0.5,0.3,0.7,0.4L295.7,130.5z M284.4,126.9l-1.4-0.4l0.7-1.8h2L284.4,126.9z M282.6,137.5v-10   h2.3v10H282.6z M276.4,136.5c-0.8,0.7-1.6,1.1-2.6,1.1c-0.7,0-1.3-0.1-1.9-0.4c-0.6-0.2-1.1-0.6-1.5-1.1c-0.4-0.4-0.8-1-1-1.6   c-0.3-0.6-0.4-1.3-0.4-2.1c0-0.7,0.1-1.3,0.4-1.9c0.3-0.6,0.6-1.1,1.1-1.6c0.4-0.4,1-0.8,1.6-1.1c0.6-0.3,1.3-0.4,2-0.4   c0.9,0,1.7,0.2,2.4,0.6c0.7,0.4,1.2,0.9,1.6,1.6l-1.7,1.3c-0.2-0.4-0.6-0.8-1-1.1c-0.4-0.2-0.9-0.4-1.4-0.4c-0.4,0-0.7,0.1-1.1,0.2   c-0.3,0.2-0.6,0.4-0.8,0.6c-0.2,0.3-0.4,0.6-0.5,1c-0.1,0.4-0.2,0.8-0.2,1.2c0,0.4,0.1,0.8,0.2,1.2c0.1,0.4,0.3,0.7,0.5,0.9   c0.2,0.3,0.5,0.5,0.8,0.6c0.3,0.2,0.7,0.2,1.1,0.2c0.9,0,1.7-0.4,2.4-1.3V134h-1.9v-1.7h3.9v5.2h-1.9V136.5z M257.8,132.5   c0,0.4,0.1,0.8,0.2,1.1c0.1,0.4,0.3,0.7,0.5,1c0.2,0.3,0.5,0.5,0.8,0.7c0.3,0.2,0.7,0.3,1.1,0.3c0.4,0,0.8-0.1,1.2-0.3   c0.3-0.2,0.6-0.4,0.8-0.7c0.2-0.3,0.4-0.6,0.5-1c0.1-0.4,0.2-0.7,0.2-1.1c0-0.4-0.1-0.8-0.2-1.1c-0.1-0.4-0.3-0.7-0.5-1   c-0.2-0.3-0.5-0.5-0.8-0.7c-0.3-0.2-0.7-0.2-1.1-0.2c-0.4,0-0.8,0.1-1.1,0.3c-0.3,0.2-0.6,0.4-0.8,0.7c-0.2,0.3-0.4,0.6-0.5,1   C257.8,131.8,257.8,132.2,257.8,132.5z M260.4,137.6c-0.7,0-1.4-0.1-2-0.4c-0.6-0.3-1.1-0.7-1.6-1.1c-0.4-0.5-0.8-1-1-1.6   c-0.2-0.6-0.4-1.2-0.4-1.9c0-0.7,0.1-1.3,0.4-1.9c0.2-0.6,0.6-1.1,1-1.6c0.4-0.5,1-0.8,1.6-1.1c0.6-0.3,1.3-0.4,2-0.4   c0.7,0,1.4,0.1,2,0.4c0.6,0.3,1.1,0.7,1.6,1.2c0.4,0.5,0.8,1,1,1.6c0.2,0.6,0.4,1.2,0.4,1.9c0,0.7-0.1,1.3-0.4,1.9   c-0.2,0.6-0.6,1.1-1,1.6c-0.4,0.5-1,0.8-1.6,1.1C261.8,137.5,261.1,137.6,260.4,137.6z M245.6,137.5v-10h2.3v8h4.8v2H245.6z    M225.8,132.3h2.1c0.3,0,0.5-0.1,0.7-0.4c0.2-0.3,0.3-0.6,0.3-1c0-0.4-0.1-0.7-0.3-1c-0.2-0.2-0.5-0.4-0.7-0.4h-2V132.3z    M223.5,137.5v-10h4.5c0.5,0,0.9,0.1,1.3,0.3c0.4,0.2,0.7,0.5,1,0.8c0.3,0.3,0.5,0.7,0.7,1.1c0.2,0.4,0.2,0.8,0.2,1.2   c0,0.3,0,0.6-0.1,0.9c-0.1,0.3-0.2,0.6-0.3,0.8c-0.1,0.3-0.3,0.5-0.5,0.7c-0.2,0.2-0.4,0.4-0.7,0.5l2.2,3.7h-2.6l-1.9-3.2h-1.5v3.2   H223.5z M211.8,132.5c0,0.4,0.1,0.8,0.2,1.1c0.1,0.4,0.3,0.7,0.5,1c0.2,0.3,0.5,0.5,0.8,0.7c0.3,0.2,0.7,0.3,1.1,0.3   c0.4,0,0.8-0.1,1.2-0.3c0.3-0.2,0.6-0.4,0.8-0.7c0.2-0.3,0.4-0.6,0.5-1c0.1-0.4,0.2-0.7,0.2-1.1c0-0.4-0.1-0.8-0.2-1.1   c-0.1-0.4-0.3-0.7-0.5-1c-0.2-0.3-0.5-0.5-0.8-0.7c-0.3-0.2-0.7-0.2-1.1-0.2c-0.4,0-0.8,0.1-1.1,0.3c-0.3,0.2-0.6,0.4-0.8,0.7   c-0.2,0.3-0.4,0.6-0.5,1C211.8,131.8,211.8,132.2,211.8,132.5z M214.4,137.6c-0.7,0-1.4-0.1-2-0.4c-0.6-0.3-1.1-0.7-1.6-1.1   c-0.4-0.5-0.8-1-1-1.6c-0.2-0.6-0.4-1.2-0.4-1.9c0-0.7,0.1-1.3,0.4-1.9c0.2-0.6,0.6-1.1,1-1.6c0.4-0.5,1-0.8,1.6-1.1   c0.6-0.3,1.3-0.4,2-0.4c0.7,0,1.4,0.1,2,0.4c0.6,0.3,1.1,0.7,1.6,1.2c0.4,0.5,0.8,1,1,1.6c0.2,0.6,0.4,1.2,0.4,1.9   c0,0.7-0.1,1.3-0.4,1.9c-0.2,0.6-0.6,1.1-1,1.6c-0.4,0.5-1,0.8-1.6,1.1C215.8,137.5,215.1,137.6,214.4,137.6z M203.5,132.5   c0-0.4-0.1-0.8-0.2-1.2c-0.1-0.4-0.3-0.7-0.5-0.9c-0.2-0.3-0.5-0.5-0.8-0.6c-0.3-0.1-0.7-0.2-1.1-0.2h-1.4v5.9h1.4   c0.4,0,0.8-0.1,1.1-0.2c0.3-0.2,0.6-0.4,0.8-0.6c0.2-0.3,0.4-0.6,0.5-0.9C203.4,133.3,203.5,132.9,203.5,132.5z M197.1,137.5v-10   h3.7c0.8,0,1.5,0.1,2.2,0.4c0.6,0.3,1.1,0.6,1.6,1.1c0.4,0.5,0.7,1,0.9,1.6c0.2,0.6,0.3,1.2,0.3,1.9c0,0.8-0.1,1.4-0.4,2.1   c-0.2,0.6-0.6,1.1-1,1.6c-0.4,0.4-1,0.8-1.6,1c-0.6,0.2-1.3,0.4-2,0.4H197.1z M189.8,133.7l-1.2-3.5l-1.2,3.5H189.8z M187.6,127.5   h2.1l3.6,10H191l-0.8-2.2h-3.1l-0.8,2.2H184L187.6,127.5z M175.1,132.3h2.1c0.3,0,0.5-0.1,0.7-0.4c0.2-0.3,0.3-0.6,0.3-1   c0-0.4-0.1-0.7-0.3-1c-0.2-0.2-0.5-0.4-0.7-0.4h-2V132.3z M172.8,137.5v-10h4.5c0.5,0,0.9,0.1,1.3,0.3c0.4,0.2,0.7,0.5,1,0.8   c0.3,0.3,0.5,0.7,0.7,1.1c0.2,0.4,0.2,0.8,0.2,1.2c0,0.3,0,0.6-0.1,0.9c-0.1,0.3-0.2,0.6-0.3,0.8c-0.1,0.3-0.3,0.5-0.5,0.7   c-0.2,0.2-0.4,0.4-0.7,0.5l2.2,3.7h-2.6l-1.9-3.2h-1.5v3.2H172.8z M166.6,136.5c-0.8,0.7-1.6,1.1-2.6,1.1c-0.7,0-1.3-0.1-1.9-0.4   s-1.1-0.6-1.5-1.1c-0.4-0.4-0.8-1-1-1.6c-0.3-0.6-0.4-1.3-0.4-2.1c0-0.7,0.1-1.3,0.4-1.9c0.2-0.6,0.6-1.1,1-1.6   c0.4-0.4,1-0.8,1.6-1.1c0.6-0.3,1.3-0.4,2-0.4c0.9,0,1.7,0.2,2.4,0.6c0.7,0.4,1.2,0.9,1.6,1.6l-1.7,1.3c-0.2-0.4-0.6-0.8-1-1.1   c-0.4-0.2-0.9-0.4-1.4-0.4c-0.4,0-0.7,0.1-1,0.2c-0.3,0.2-0.6,0.4-0.8,0.6c-0.2,0.3-0.4,0.6-0.5,1c-0.1,0.4-0.2,0.8-0.2,1.2   c0,0.4,0.1,0.8,0.2,1.2c0.1,0.4,0.3,0.7,0.6,0.9c0.2,0.3,0.5,0.5,0.8,0.6c0.3,0.2,0.7,0.2,1.1,0.2c0.9,0,1.7-0.4,2.4-1.3V134h-1.9   v-1.7h3.9v5.2h-1.9V136.5z M155.7,135.5v2h-7v-10h6.9v2H151v1.9h3.9v1.9H151v2.1H155.7z M144.7,129.6h-3v8h-2.3v-8h-3.1v-2h8.4   V129.6z M125.9,131.8v5.7h-2.3v-10h1.8l4.7,5.9v-5.9h2.3v10h-1.9L125.9,131.8z M116.6,137.5v-10h2.3v10H116.6z"></path>
	<path class="st0" d="M2.3,12.3H108v51.1c-0.7,0-1.4,0-2.3,0c-31.3-50.2-68.5-29.5-89.2,6.3c-3.4,5.6-5.9,12.2-7.7,18.9   c-2.2,0.7-4.5,1.6-6.5,2V12.3z M93.8,64.1c-15.5,1.8-32.2,6.3-47.5,11.3C50,52.9,57.3,33.9,69,34.1C82.3,34.4,89.7,47.2,93.8,64.1z   "></path>
	<path class="st0" d="M2.3,92.5c2-0.5,4.3-1.4,6.5-2c-2.9,9.7-4.5,19.8-6.5,28.4V92.5z M46.2,77.2C64,73,89.9,65.3,108,65.3v54.3   H42.8C42.8,106.7,44,91.2,46.2,77.2z"></path>
</g>
</svg>
